<svg width="1059" height="466" viewBox="0 0 1059 466" fill="none" xmlns="http://www.w3.org/2000/svg">
<path d="M91.0529 -3.15001e-05L77.3339 57.707L179.614 57.746H203.614C269.361 57.746 309.524 84.186 298.36 131.146C286.213 182.279 228.747 204.546 167.69 204.546H144.743L174.53 79.096H72.2599L28.7389 262.296H173.789C282.859 262.296 386.549 204.723 404.799 131.146C408.146 117.639 407.68 83.893 399.44 63.787C399.227 63 399.014 62.387 398.254 60.787C397.961 60.134 397.694 57.1458 399.401 56.5058C400.348 56.1458 402.107 58.0002 402.334 58.5468C403.187 60.7868 403.84 62.453 403.84 62.453L496.133 323.053L731.103 57.843L830.638 57.7532H854.638C920.398 57.7532 960.888 84.1932 949.73 131.153C937.583 182.286 879.783 204.553 818.73 204.553H795.771L825.57 79.0832H723.3L679.767 262.293H824.837C933.887 262.293 1038.32 204.893 1055.84 131.143C1073.36 57.3932 996.73 -0.0068125 887.147 -0.0068125H670.747C670.747 -0.0068125 613.428 67.8732 602.788 80.6862C545.668 149.473 535.547 167.912 533.827 172.672C534.067 167.872 532.013 149.26 507.653 79.7132C501.173 61.1932 480.294 -0.0078125 480.294 -0.0078125H91.044L91.0529 -3.15001e-05ZM499.823 324.16C223.783 324.16 -0.00708008 355.88 -0.00708008 395C-0.00708008 434.12 223.783 465.84 499.823 465.84C775.863 465.84 999.653 434.12 999.653 395C999.653 355.88 775.863 324.16 499.823 324.16ZM481.729 372.787C544.769 372.787 595.859 383.36 595.859 396.4C595.859 409.44 544.764 420.013 481.729 420.013C418.702 420.013 367.599 409.44 367.599 396.4C367.599 383.36 418.705 372.787 481.729 372.787Z" fill="black"/>
</svg>
