<svg width="321" height="518" viewBox="0 0 321 518" fill="none" xmlns="http://www.w3.org/2000/svg">
<path d="M2 483L1 517H311V506L312 458L313 427L314 394L315 326L316 300L317 237L318 205L319 150L320 139L319 129L318 120L317 111L316 104L315 100L314 97L313 93L312 89L311 85L310 83L309 80L304 70L303 67L302 65L301 64L299 60L297 58L296 56L294 54L293 52L290 49L289 47L286 44L285 42L278 35L276 34L266 24L264 23L263 22L261 21L260 20L258 19L257 18L255 17L254 16L250 14L249 13L247 12L246 11L238 7L235 6L233 5L230 4L224 1H105L99 4L96 5L93 6L87 9L85 10L83 11L82 12L80 13L78 14L77 15L73 17L72 18L70 19L68 20L64 24L62 25L59 28L57 29L42 44L41 46L39 48L38 50L34 54L33 56L32 57L31 58L30 60L29 62L28 63L27 65L26 67L25 69L24 71L23 72L22 74L21 76L20 78L19 80L18 83L17 86L16 89L15 92L14 95L13 99L12 103L11 106L10 111L9 119L8 126L7 131L6 215L5 269L4 323L3 430L2 483Z" stroke="#FF0000" stroke-width="0.5"/>
</svg>
